<svg width="1591" height="484" viewBox="0 0 1591 484" fill="none" xmlns="http://www.w3.org/2000/svg">
<g filter="url(#filter0_d_293_81)">
<path d="M226.33 280C218.163 264.333 205.73 222.8 221.33 182C236.93 141.2 277.495 138 295.828 141.5C307.328 144.667 332.828 150.9 342.828 150.5C352.828 150.1 346.995 151.667 342.828 152.5L302.328 251.5H383.328L342.828 160" stroke="white" stroke-width="12"/>
</g>
<g filter="url(#filter1_d_293_81)">
<path d="M108.828 332C156.661 332.167 247.828 317.5 257.328 417.5" stroke="white" stroke-width="11"/>
</g>
<g filter="url(#filter2_d_293_81)">
<path d="M108.828 332C156.661 332.167 247.828 317.5 257.328 417.5" stroke="white" stroke-width="11"/>
</g>
<g filter="url(#filter3_d_293_81)">
<path d="M232.828 420C232.828 400.667 220.928 360.9 173.328 356.5H96.8281M207.328 420C208.328 408.5 202.928 385.1 173.328 383.5H85.3281" stroke="white" stroke-width="12"/>
</g>
<g filter="url(#filter4_d_293_81)">
<path d="M241.328 297.5C248.995 304.333 269.128 317.2 288.328 314C292.661 314.333 301.328 317.4 301.328 327" stroke="white" stroke-width="12"/>
</g>
<g filter="url(#filter5_d_293_81)">
<path d="M250.237 174.911C248.807 171.922 245.225 170.657 242.235 172.087C239.246 173.517 237.981 177.099 239.411 180.089L250.237 174.911ZM228.824 295.5L233.387 299.397L233.494 299.271L233.594 299.14L228.824 295.5ZM178.824 315.5L178.926 309.501L178.135 309.487L177.369 309.679L178.824 315.5ZM244.824 177.5L239.411 180.089C247.886 197.809 257.134 248.514 224.055 291.86L228.824 295.5L233.594 299.14C270.114 251.286 260.095 195.525 250.237 174.911L244.824 177.5ZM228.824 295.5L224.262 291.603C221.53 294.802 215.693 299.432 207.579 303.211C199.548 306.951 189.656 309.683 178.926 309.501L178.824 315.5L178.722 321.499C191.592 321.717 203.284 318.449 212.645 314.089C221.922 309.768 229.286 304.198 233.387 299.397L228.824 295.5ZM178.824 315.5L177.369 309.679C174.993 310.273 172.648 311.604 170.696 313.031C168.667 314.514 166.644 316.407 164.967 318.531C163.325 320.61 161.767 323.223 161.092 326.153C160.382 329.234 160.641 332.847 162.988 336.048L167.827 332.5L172.665 328.952C172.665 328.952 172.666 328.954 172.669 328.958C172.672 328.962 172.675 328.967 172.679 328.974C172.687 328.989 172.697 329.008 172.706 329.031C172.726 329.078 172.736 329.121 172.741 329.147C172.749 329.201 172.723 329.117 172.785 328.847C172.926 328.236 173.393 327.223 174.384 325.969C175.339 324.76 176.558 323.611 177.777 322.719C179.075 321.771 179.988 321.394 180.279 321.321L178.824 315.5Z" fill="white"/>
</g>
<g filter="url(#filter6_d_293_81)">
<path d="M257.828 417.5C257.995 407.167 264.528 385.6 289.328 382H381.328" stroke="white" stroke-width="11"/>
</g>
<g filter="url(#filter7_d_293_81)">
<path d="M247.828 378.5C251.995 372 265.628 358.6 286.828 357H369.328" stroke="white" stroke-width="11"/>
</g>
<g filter="url(#filter8_d_293_81)">
<path d="M233.328 357.5C240.995 348.833 261.728 331.7 283.328 332.5H355.328" stroke="white" stroke-width="11"/>
</g>
<g filter="url(#filter9_d_293_81)">
<path d="M295.828 257.5C302.828 294 366.328 319 388.328 257.5" stroke="white" stroke-width="12"/>
</g>
<g filter="url(#filter10_d_293_81)">
<path d="M77.3281 253C84.3281 289.5 147.828 314.5 169.828 253" stroke="white" stroke-width="12"/>
</g>
<g filter="url(#filter11_d_293_81)">
<path d="M391.651 251.072C391.872 251.585 393.927 255.14 393.304 255.842C392.941 256.253 392.241 255.23 392.126 255.044C391.711 254.376 390.931 252.14 391.147 252.896C391.31 253.465 391.494 253.838 391.48 254.455C391.456 255.484 390.88 254.616 390.805 254.056C390.778 253.855 390.393 252.188 390.738 253.067C391.285 254.456 391.399 256.002 391.128 257.468C390.952 258.422 390.709 259.492 389.978 260.195C389.336 260.812 389.587 259.401 389.693 259.15C390.008 258.405 390.078 257.617 390.453 256.888C390.651 256.504 390.98 256.272 391.233 255.947C391.749 255.283 391.651 256.409 391.651 256.717C391.651 258.102 391.636 258.598 390.187 258.598C389.044 258.598 389.239 257.382 389.256 256.546C389.277 255.491 390.306 255.22 391.128 255.785C391.905 256.319 391.651 257.702 391.651 258.522C391.651 259.75 391.933 259.385 392.924 259.102C393.363 258.977 393.19 257.831 393.19 257.487C393.19 256.752 393.533 256.148 393.533 255.434C393.533 254.882 393.458 254.267 393.542 253.723C393.707 252.652 393.875 251.786 393.875 250.644C393.875 248.653 392.051 249.19 390.529 249.19C389.661 249.19 388.793 249.19 387.925 249.19C386.295 249.19 388.349 249.179 388.914 249.19C389.398 249.2 391.749 249.169 391.812 249.646C391.995 251.017 391.138 252.56 391.138 253.97C391.138 254.23 391.147 254.212 391.128 253.904C391.081 253.148 390.965 252.398 390.795 251.661C390.718 251.325 390.259 249.601 390.13 250.958C390.075 251.533 390.144 252.117 390.026 252.687C389.964 252.984 389.94 251.637 389.94 251.452C389.94 251.101 389.678 249.775 390.206 249.713C390.866 249.635 391.993 249.476 391.993 250.349C391.993 251.156 392.335 251.816 392.335 252.611C392.335 252.845 392.069 253.459 392.002 252.925C391.948 252.49 391.993 252.024 391.993 251.585C391.993 251.002 392.179 250.065 391.955 249.532C391.589 248.662 392.818 249.066 393.323 249.228C394.046 249.46 393.875 250.432 393.875 251.034C393.875 253.041 393.654 255.155 393.019 257.059" stroke="white" stroke-width="2" stroke-linecap="round" shape-rendering="crispEdges"/>
</g>
<g filter="url(#filter12_d_293_81)">
<path d="M299.276 247.479C298.75 247.947 297.504 247.65 296.872 247.65C296.235 247.65 295.693 247.73 295.076 247.812C294.337 247.91 293.522 247.821 292.776 247.821C291.9 247.821 290.868 247.782 290.039 248.078C289.003 248.448 289.831 249.17 289.868 249.874C289.93 251.067 289.975 252.315 290.039 253.466C290.121 254.947 290.521 256.432 290.733 257.914C290.853 258.76 291.158 259.246 291.54 259.967C291.67 260.211 292.743 260.863 292.5 260.718C291.893 260.354 291.749 258.962 291.749 258.294C291.749 257.554 291.569 257.209 291.274 256.546C290.82 255.525 291.374 254.289 290.932 253.295C290.692 252.754 290.823 251.768 290.714 251.167C290.669 250.924 290.286 249.801 290.115 249.703C289.975 249.623 289.665 249.181 289.944 249.057C290.506 248.807 291.455 250.064 291.749 250.425C291.967 250.692 292.16 251.243 292.538 251.243C293.913 251.243 295.3 251.302 296.672 251.233C297.117 251.211 297.781 251.101 297.014 251.072C296.505 251.052 296.001 250.668 295.513 250.52C294.767 250.294 294.046 249.874 293.213 249.874C292.941 249.874 292.667 249.885 292.396 249.874C291.772 249.849 292.441 249.532 292.738 249.532C293.688 249.532 294.639 249.532 295.589 249.532C296.404 249.532 297.099 249.19 297.908 249.19C299.086 249.19 295.574 249.566 294.448 249.912C293.8 250.112 293.095 250.283 292.434 250.378C292.157 250.417 291.858 250.387 291.578 250.387C290.688 250.387 292.039 251.141 292.282 251.509C292.786 252.272 293.069 253.852 293.108 254.749C293.148 255.631 293.118 256.519 293.118 257.401C293.118 257.536 293.105 258.857 293.365 258.56C293.641 258.245 293.457 257.261 293.46 256.888C293.468 256.098 293.534 255.355 293.802 254.607C293.953 254.188 294.361 252.611 294.696 252.307C294.824 252.19 295.421 252.239 295.598 252.279C296.092 252.388 295.855 254.059 295.855 254.398C295.855 255.604 296.029 256.272 294.924 256.793C293.905 257.272 294.315 258.78 294.315 259.796" stroke="white" stroke-width="2" stroke-linecap="round" shape-rendering="crispEdges"/>
</g>
<g filter="url(#filter13_d_293_81)">
<path d="M344.972 145.762C345.013 145.598 346.407 145.714 346.7 145.714C347.422 145.714 348.112 145.509 348.819 145.355C349.255 145.26 349.687 145.032 350.117 144.9C350.628 144.743 351.083 144.428 351.606 144.273C351.897 144.187 352.149 144.021 352.417 143.893C352.642 143.785 352.927 143.705 353.108 143.534C353.361 143.295 353.631 143.173 353.946 143.034C354.123 142.955 354.238 142.767 354.4 142.661C355.375 142.028 356.352 141.382 357.214 140.582C357.534 140.285 357.747 139.926 358.062 139.612C358.461 139.213 358.908 138.909 359.306 138.511C359.494 138.323 359.695 138.175 359.867 137.971C360.059 137.744 360.232 137.507 360.436 137.288C360.648 137.061 360.889 136.865 361.101 136.642C361.328 136.402 361.603 136.13 361.885 135.956C362.043 135.859 362.093 135.686 362.226 135.568C362.431 135.385 362.623 135.148 362.797 134.935C363.167 134.483 363.684 134.2 364.031 133.728C364.364 133.274 364.897 132.945 365.312 132.574C365.623 132.296 365.941 131.993 366.211 131.643C366.333 131.485 366.479 131.334 366.567 131.165C366.688 130.935 366.897 130.785 367.014 130.566C367.04 130.519 367.22 130.2 367.275 130.207C367.375 130.22 367.323 130.855 367.323 130.973C367.323 131.175 367.196 131.478 367.11 131.664C366.99 131.925 366.912 132.216 366.823 132.483C366.734 132.748 366.747 133.078 366.69 133.355C366.627 133.661 366.447 133.964 366.416 134.273C366.39 134.528 366.251 134.802 366.147 135.038C366.037 135.291 366.02 135.55 365.935 135.807C365.733 136.412 365.586 137.04 365.36 137.636C365.272 137.869 365.219 138.088 365.14 138.325C365.01 138.714 364.786 139.07 364.669 139.455C364.482 140.068 364.282 140.746 363.925 141.274C363.606 141.744 363.357 142.301 363.084 142.797C362.87 143.187 362.632 143.685 362.632 144.134C362.632 144.665 362.383 145.253 362.178 145.743C361.9 146.406 361.7 147.1 361.391 147.745C360.733 149.116 359.637 150.203 358.681 151.377C358.46 151.649 358.226 151.85 357.942 152.055C357.772 152.178 357.62 152.345 357.453 152.451C356.619 152.981 355.803 153.554 354.89 153.946C354.315 154.192 353.715 154.611 353.087 154.711C352.803 154.757 352.478 154.934 352.21 155.047C351.981 155.142 351.719 155.199 351.5 155.315C351.025 155.566 350.484 155.722 350.021 156.004C349.783 156.149 349.495 156.188 349.269 156.339C349.061 156.477 348.843 156.615 348.631 156.746C348.439 156.863 348.221 156.917 348.009 156.987C347.88 157.03 347.733 157.133 347.602 157.15C347.421 157.172 347.32 157.213 347.174 157.344C347.073 157.434 346.94 157.476 346.841 157.559C346.776 157.614 346.869 157.549 346.886 157.525C347.026 157.334 347.133 157.124 347.275 156.934C348.002 155.964 349.152 155.419 350.181 154.823C350.792 154.469 351.411 154.118 352.034 153.786C352.671 153.447 353.29 153.062 353.932 152.739C354.308 152.55 354.643 152.332 354.964 152.061C355.121 151.928 355.217 151.741 355.363 151.595C355.862 151.096 356.372 150.578 356.793 150.011C357.249 149.397 357.727 148.768 358.24 148.203C358.796 147.59 359.184 146.929 359.577 146.2C360.081 145.268 360.528 144.278 360.909 143.289C361.377 142.078 361.96 140.898 362.486 139.71C362.766 139.079 362.988 138.414 363.297 137.796C363.547 137.295 363.845 136.809 364.132 136.328C364.148 136.301 364.247 136.024 364.257 136.11C364.308 136.569 364.246 137.06 364.135 137.503C363.945 138.254 363.703 139.03 363.329 139.71C362.679 140.89 361.931 142.02 361.356 143.241C360.43 145.206 359.345 147.093 358.149 148.91C357.537 149.84 356.882 150.786 356.408 151.797C356.267 152.099 356.135 152.406 355.943 152.68C355.821 152.854 356.222 152.423 356.235 152.409C357.291 151.285 358.574 150.422 359.426 149.112C359.563 148.901 359.698 148.69 359.798 148.458C359.958 148.086 360.199 147.752 360.351 147.378C360.93 145.956 361.251 144.417 361.984 143.06C362.524 142.06 362.841 141.039 363.156 139.955C363.4 139.116 363.687 138.316 363.999 137.498C364.407 136.429 364.906 135.41 365.339 134.347C365.393 134.214 365.452 134.071 365.53 133.951C365.684 133.716 365.273 134.456 365.089 134.669C364.718 135.098 364.2 135.359 363.776 135.727C362.998 136.402 362.31 137.208 361.569 137.926C360.982 138.494 360.446 138.982 359.761 139.444C359.011 139.95 358.288 140.492 357.517 140.968C356.581 141.545 355.577 142.005 354.568 142.435C353.076 143.072 351.668 143.825 350.274 144.656C349.737 144.975 349.169 145.36 348.713 145.778C348.661 145.826 348.746 145.796 348.78 145.788C349.201 145.692 349.617 145.565 350.035 145.453C350.726 145.269 351.426 145.115 352.114 144.919C353.368 144.56 354.55 144.032 355.749 143.523C356.553 143.181 357.372 142.862 358.149 142.459C358.933 142.054 359.657 141.542 360.372 141.029C361.25 140.399 362.112 139.746 362.989 139.115C363.054 139.067 363.146 139.027 363.076 139.162C362.866 139.574 362.304 139.853 361.946 140.093C359.268 141.894 356.486 143.484 353.714 145.132C353.323 145.364 352.937 145.597 352.571 145.868C352.544 145.888 352.464 145.953 352.491 145.932C352.578 145.866 352.599 145.847 352.693 145.762C354.147 144.44 355.816 143.401 357.437 142.3C358.015 141.907 358.585 141.466 359.194 141.119C359.499 140.946 359.471 141.203 359.426 141.444C359.296 142.128 358.846 142.729 358.421 143.26C357.618 144.259 356.574 144.876 355.483 145.522C354.602 146.044 353.71 146.54 352.81 147.027C352.435 147.231 351.357 147.913 351.688 147.644C353.377 146.278 355.024 144.864 356.724 143.512C357.08 143.229 357.601 142.917 357.905 142.563C358.064 142.378 357.504 142.842 357.301 142.978C356.39 143.587 356.013 143.825 354.943 144.39C351.794 146.052 348.492 147.426 345.23 148.846C344.229 149.282 343.166 149.841 342.101 150.138C342.036 150.156 342.203 150.052 342.26 150.016C342.78 149.688 343.309 149.374 343.861 149.101C344.794 148.639 345.781 148.276 346.748 147.894C347.845 147.461 348.946 147.034 350.093 146.751C350.168 146.732 350.932 146.484 351.048 146.623C351.196 146.801 350.373 147.662 350.298 147.751C349.989 148.117 349.656 148.467 349.375 148.857C349.278 148.992 348.9 149.504 349.375 149.176C349.885 148.823 350.364 148.419 350.835 148.016C352.198 146.851 353.555 145.677 354.903 144.493C355.583 143.897 356.261 143.295 356.892 142.646C356.964 142.572 357.123 142.338 357.123 142.441C357.123 142.657 357.043 142.903 356.985 143.103C356.806 143.716 356.591 144.321 356.336 144.906C356.148 145.338 355.938 145.757 355.714 146.171C355.696 146.204 355.651 146.298 355.682 146.278C355.823 146.186 355.927 146.047 356.044 145.927C357.367 144.565 358.672 143.184 359.88 141.718C360.193 141.338 360.474 140.943 360.771 140.553C360.852 140.446 360.804 140.702 360.803 140.707C360.648 141.892 359.993 143.041 359.378 144.039C358.734 145.084 357.941 146.131 357.097 147.027C357.01 147.119 357.201 146.797 357.264 146.687C357.597 146.106 357.904 145.511 358.232 144.927C358.532 144.393 358.845 143.867 359.152 143.337C359.168 143.308 359.45 142.722 359.402 143.108C359.189 144.812 357.944 146.456 356.788 147.639C356.542 147.89 352.74 151.141 352.438 150.542C352.325 150.318 352.551 149.839 352.622 149.649C352.818 149.123 353.052 148.598 353.353 148.123C353.398 148.052 354.143 147.06 354.185 147.15C354.376 147.552 354.28 148.297 354.236 148.718C354.168 149.357 353.822 149.845 353.294 150.197C353.032 150.371 353.179 149.109 353.188 149.016C353.299 147.824 353.766 146.11 354.922 145.491C355.616 145.119 355.574 146.166 355.589 146.581C355.617 147.375 355.699 148.367 355.166 149.027C355.106 149.102 354.744 149.51 354.592 149.388C354.501 149.316 354.544 148.972 354.544 148.889C354.546 148.507 354.56 148.121 354.704 147.761C354.754 147.634 355.172 146.805 355.429 146.924C355.548 146.978 355.577 147.3 355.592 147.392C355.67 147.901 355.592 148.403 355.467 148.899C355.223 149.864 354.549 150.628 353.826 151.287C353.726 151.378 352.899 152.185 352.975 151.675C353.061 151.107 353.501 150.525 353.922 150.157C353.962 150.122 354.711 149.605 354.733 149.771C354.789 150.189 354.733 150.739 354.209 150.739" stroke="white" stroke-width="2" stroke-linecap="round" shape-rendering="crispEdges"/>
</g>
<g filter="url(#filter14_d_293_81)">
<path d="M364.878 138.503C365.332 138.986 364.731 139.392 364.675 139.84C364.64 140.114 364.434 140.325 364.341 140.573C364.262 140.784 364.189 141.022 364.049 141.202C363.813 141.506 363.695 141.914 363.512 142.239C363.438 142.37 363.447 142.49 363.397 142.62C363.354 142.731 363.212 142.734 363.212 142.868C363.212 143.036 363.071 143.411 362.975 143.535C362.81 143.747 362.808 143.994 362.664 144.197C362.543 144.369 362.537 144.654 362.546 144.568C362.573 144.307 362.673 143.999 362.761 143.753C362.817 143.596 362.915 143.457 362.975 143.301C363.033 143.152 362.991 142.99 363.079 142.85C363.417 142.312 363.643 141.585 363.908 140.991C364.017 140.749 364.238 140.568 364.338 140.332C364.428 140.117 364.485 139.862 364.545 139.636C364.76 138.833 364.96 138.033 365.211 137.237" stroke="white" stroke-width="2" stroke-linecap="round" shape-rendering="crispEdges"/>
</g>
<g filter="url(#filter15_d_293_81)">
<path d="M348.707 154.8V154.97" stroke="white" stroke-width="2" stroke-linecap="round"/>
</g>
<g filter="url(#filter16_d_293_81)">
<path d="M348.426 154.97C348.745 155.422 348.934 155.869 348.934 156.413C348.934 156.561 349.005 156.932 348.921 157.047C348.727 157.314 348.954 157.821 348.987 158.104C349.042 158.568 349.166 159.117 349.329 159.557C349.413 159.781 349.52 159.998 349.568 160.234C349.661 160.698 349.675 161.188 349.809 161.637C349.895 161.924 350.031 162.216 350.089 162.506C350.179 162.959 350.195 163.412 350.318 163.861C350.458 164.377 350.637 164.825 350.741 165.361C350.92 166.278 351.276 167.15 351.507 168.053C351.653 168.625 351.91 169.158 352.159 169.691C352.358 170.115 352.457 170.601 352.661 171.008" stroke="white" stroke-width="2" stroke-linecap="round"/>
</g>
<g filter="url(#filter17_d_293_81)">
<circle cx="232.828" cy="89.5" r="29.5" stroke="white" stroke-width="10" shape-rendering="crispEdges"/>
</g>
<g filter="url(#filter18_d_293_81)">
<path d="M221.828 149.5C215.328 142.833 196.428 131.5 172.828 139.5C149.228 147.5 129.995 149.5 123.328 149.5M123.328 149.5L83.3281 248.5H161.828L123.328 149.5Z" stroke="white" stroke-width="11" stroke-linecap="round" shape-rendering="crispEdges"/>
</g>
<g filter="url(#filter19_d_293_81)">
<path d="M173.685 255.977C174.317 255.305 174.849 254.162 175.228 253.278C175.452 252.755 176.01 252.142 176.01 251.584C176.01 250.882 176.479 249.972 176.656 249.265C176.828 248.578 176.785 247.88 176.785 247.162C176.785 246.861 176.956 245.519 176.706 245.325C176.371 245.064 175.071 244.882 174.618 244.866C172.61 244.794 170.59 244.866 168.581 244.866C167.623 244.866 166.589 244.973 165.646 245.153C165.326 245.214 164.945 245.209 164.641 245.318C164.534 245.356 163.746 245.417 163.758 245.447C163.99 246.028 166.726 245.77 167.383 245.77C168.545 245.77 169.697 245.899 170.835 245.899C171.719 245.899 172.691 246.158 173.527 246.158C174.114 246.158 175.206 245.915 175.558 246.502C176.214 247.596 175.687 249.613 175.106 250.55C174.062 252.232 172.691 254.559 170.641 255.015C170.346 255.08 170.46 253.628 170.469 253.479C170.52 252.645 170.829 251.887 171.302 251.203C172.117 250.023 173.201 249.066 174.366 248.246C174.64 248.054 174.872 247.826 174.977 248.268C175.188 249.165 175.145 250.198 175.077 251.11C175.028 251.768 174.904 252.578 174.388 253.048C174.318 253.112 174.137 253.325 174.101 253.149C173.974 252.532 174.072 251.814 174.072 251.189C174.072 250.35 174.01 249.485 174.079 248.648C174.089 248.534 174.164 248.39 174.115 248.612C173.982 249.218 173.709 249.803 173.426 250.349C172.483 252.174 171.309 254.048 169.988 255.625C169.488 256.222 169.15 256.55 169.292 255.589C169.53 253.972 170.163 252.367 170.785 250.866C171.154 249.976 171.606 249.13 172.134 248.325C172.417 247.895 172.721 248.191 172.981 248.569C173.217 248.913 174.037 251.151 173.469 251.512C172.734 251.98 170.735 250.378 170.211 249.911C169.847 249.588 169.571 249.27 169.55 248.742C169.54 248.478 169.537 247.93 169.364 247.708C169.056 247.313 171.316 247.45 171.524 247.45C172.183 247.45 172.792 247.32 173.426 247.32C174.456 247.32 172.888 247.32 172.586 247.32C171.881 247.32 171.175 247.32 170.469 247.32C169.551 247.32 168.648 247.191 167.742 247.191C166.924 247.191 168.177 248.789 168.387 249C169.063 249.675 170.098 250.34 170.526 251.196C170.972 252.086 171.17 250.387 171.259 250.048C171.469 249.244 171.663 248.397 172.005 247.636C172.169 247.271 171.936 248.598 171.919 248.684C171.869 248.927 170.824 251.845 170.526 251.419C170.21 250.967 170.277 249.857 170.203 249.316C170.076 248.384 170.024 249.554 169.981 249.825C169.84 250.723 169.6 251.603 169.134 252.388C169.027 252.567 168.667 253.393 168.387 253.393C167.691 253.393 167.834 251.624 167.899 251.211C168.09 249.998 170.931 246.611 171.998 249.079C172.06 249.223 172.402 249.956 172.206 250.105C171.89 250.346 171.014 249.407 170.857 249.215C170.208 248.423 169.914 247.69 169.809 246.703C169.728 245.953 168.819 246.158 168.301 246.158C166.995 246.158 165.689 246.158 164.382 246.158" stroke="white" stroke-width="2" stroke-linecap="round" shape-rendering="crispEdges"/>
</g>
<g filter="url(#filter20_d_293_81)">
<path d="M173.039 246.804H174.202" stroke="white" stroke-width="2" stroke-linecap="round"/>
</g>
<g filter="url(#filter21_d_293_81)">
<path d="M174.332 248.096C174.829 248.096 175.262 248.026 175.344 248.655C175.456 249.514 175.431 250.342 174.978 251.067" stroke="white" stroke-width="2" stroke-linecap="round"/>
</g>
<g filter="url(#filter22_d_293_81)">
<path d="M72.7564 255.49C72.7564 253.723 72.718 252.069 72.3444 250.351C72.0275 248.893 72.2685 247.459 72.2685 245.982C72.2685 245.744 72.209 245.428 72.2739 245.201C72.3112 245.071 73.0243 245.147 73.1521 245.147C74.0753 245.147 74.9235 245.44 75.868 245.44C77.5069 245.44 79.1458 245.44 80.7847 245.44C81.6358 245.44 82.4869 245.44 83.338 245.44C83.5512 245.44 84.1909 245.44 83.9776 245.44C83.7281 245.44 83.4985 245.399 83.2512 245.364C81.8722 245.167 80.5919 244.854 79.1964 244.854C78.058 244.854 76.9196 244.854 75.7812 244.854C74.4947 244.854 73.2081 244.854 71.9216 244.854C71.114 244.854 71 245.39 71 246.079C71 246.784 71 247.489 71 248.193C71 249.567 71.4629 250.737 71.8782 251.983C72.1551 252.813 72.3382 253.639 72.6154 254.471C72.7168 254.775 72.7084 255.184 72.9082 255.441C73.1669 255.774 73.4376 256.08 73.6888 256.422C73.7908 256.561 74.583 257.417 74.0303 257.094C73.6512 256.873 73.6797 256.481 73.4394 256.216C73.2572 256.016 73.2942 255.592 73.2388 255.344C73.173 255.047 72.9211 254.69 72.7564 254.438C72.4063 253.903 72.2009 253.3 71.8999 252.758C71.6374 252.285 71.6501 251.812 71.4662 251.316C71.161 250.492 71.1808 249.699 71.1952 248.779C71.2181 247.307 72.5715 246.457 73.743 245.852C74.5957 245.411 75.1502 245.147 76.1173 245.147C76.7032 245.147 77.8523 245.395 78.0147 246.085C78.1575 246.692 77.9317 247.499 77.6677 248.031C77.455 248.459 76.9057 249.411 76.4589 249.662C75.696 250.092 75.3909 247.701 75.3909 247.407C75.3909 247.33 75.4425 246.504 75.662 246.936C76.1595 247.913 76.2369 249.168 76.3125 250.237C76.3484 250.745 76.3667 252.296 76.3667 250.86C76.3667 249.988 76.0944 248.632 76.4697 247.819C76.5774 247.586 76.638 247.838 76.6594 247.955C76.7762 248.594 76.8005 249.26 76.8546 249.906C76.9115 250.586 77.1485 251.624 76.9413 252.297C76.8378 252.633 76.2997 251.322 76.2908 251.294C75.9889 250.333 75.8523 249.357 75.8842 248.351C75.8996 247.866 76.026 247.599 76.2474 247.196C76.3332 247.04 76.4571 246.916 76.4643 246.73C76.4897 246.069 75.7057 246.879 75.4343 247.077C74.965 247.419 74.8097 247.758 74.5778 248.302C74.3507 248.835 74.4063 249.438 74.4152 250.004C74.4227 250.489 74.5011 250.987 74.567 251.468C74.6876 252.346 74.6764 253.243 74.8543 254.113C74.9341 254.503 75.0006 254.874 75.0006 255.273C75.0006 255.768 74.9341 254.284 74.838 253.799C74.4813 251.998 73.8297 250.088 73.8297 248.237C73.8297 247.822 73.8348 247.443 73.6833 247.05C73.6152 246.872 73.5869 246.812 73.4611 246.686C72.9969 246.222 74.5352 247.444 75.0982 247.781" stroke="white" stroke-width="2" stroke-linecap="round" shape-rendering="crispEdges"/>
</g>
<g filter="url(#filter23_d_293_81)">
<path d="M121.447 144.448C120.601 144.398 119.633 143.788 118.834 143.472C118.277 143.252 117.775 143.035 117.219 142.789C116.617 142.523 115.993 142.084 115.452 141.716C114.789 141.265 114.077 140.898 113.408 140.453C112.847 140.079 112.306 139.68 111.842 139.184C111.509 138.829 111.124 138.539 110.774 138.203C110.469 137.912 110.266 137.506 109.966 137.206C109.189 136.429 108.211 135.895 107.445 135.13C107.106 134.791 106.673 134.609 106.372 134.208C106.043 133.769 105.697 133.284 105.298 132.885C104.891 132.478 104.677 132.066 104.377 131.617C104.222 131.384 103.969 131.239 103.835 130.972C103.669 130.639 103.549 130.243 103.298 129.963C102.681 129.274 101.907 128.83 101.292 128.104C101.024 127.787 100.804 127.415 100.512 127.123C100.401 127.012 99.523 126.163 99.883 126.201C100.458 126.262 100.396 128.214 100.588 128.641C100.795 129.102 100.833 129.622 101.054 130.104C101.373 130.803 101.421 131.623 101.786 132.294C102.162 132.987 102.165 133.82 102.463 134.544C102.752 135.244 102.876 136.018 103.103 136.74C103.667 138.532 104.611 140.234 105.488 141.862C106.099 142.996 106.709 144.151 107.635 145.077C107.86 145.302 107.955 145.592 108.177 145.814C108.395 146.032 108.686 146.282 108.855 146.535C109.177 147.019 109.765 147.544 110.183 147.961C111.375 149.153 112.79 150.134 113.988 151.333C114.886 152.231 115.738 153.156 116.861 153.718" stroke="white" stroke-width="2" stroke-linecap="round" shape-rendering="crispEdges"/>
</g>
<g filter="url(#filter24_d_293_81)">
<path d="M119.791 151.864C119.763 151.148 118.893 150.746 118.408 150.335C117.743 149.772 116.988 149.256 116.37 148.638C115.368 147.636 114.198 146.82 113.34 145.717C112.705 144.9 112.011 143.989 111.215 143.331C109.036 141.532 107.462 139.07 105.609 136.956C105.035 136.301 104.504 135.589 104.043 134.848C103.916 134.644 103.53 134.224 103.501 133.991C103.429 133.421 103.128 132.806 102.856 132.3C102.554 131.739 102.276 131.179 101.945 130.641C101.585 130.056 102.335 130.836 102.427 130.939C103.061 131.644 103.638 132.344 104.178 133.124C105.285 134.723 106.788 135.993 107.865 137.618C108.224 138.161 108.749 138.53 109.231 138.962C110.623 140.21 112.429 141.048 113.833 142.312C114.517 142.928 115.217 143.407 116.007 143.884C116.645 144.27 117.392 144.617 117.937 145.131C118.327 145.5 120.611 146.474 120.474 146.887" stroke="white" stroke-width="2" stroke-linecap="round"/>
</g>
<g filter="url(#filter25_d_293_81)">
<path d="M119.885 148.546C118.711 147.776 117.645 146.958 116.579 146.053C115.729 145.331 114.837 144.597 113.857 144.058C113.378 143.794 112.97 143.413 112.502 143.125C111.751 142.663 110.995 142.301 110.372 141.678C110.347 141.653 109.881 141.307 110.025 141.298C110.634 141.263 111.16 142.079 111.467 142.48C112.85 144.285 114.005 146.238 115.484 147.972C115.863 148.416 116.15 148.879 116.546 149.305C116.585 149.347 116.707 149.677 116.741 149.674C116.874 149.66 116.958 149.189 116.958 149.083C116.958 148.036 116.378 147.488 115.934 146.698C115.922 146.677 115.706 146.375 115.858 146.421C116.299 146.557 116.553 147.266 116.763 147.614C117.282 148.474 117.84 149.36 118.151 150.324C118.474 151.327 117.839 152.143 116.823 151.804C116.117 151.569 115.486 150.3 115.061 149.723C114.519 148.986 114.11 148.178 113.597 147.43C112.629 146.017 111.344 144.913 110.442 143.451C109.778 142.374 108.637 141.624 107.932 140.54C107.471 139.829 106.861 139.301 106.333 138.653C106.026 138.276 105.658 137.704 105.249 137.423C105.189 137.381 105.542 138.453 105.596 138.572C105.832 139.09 106.095 139.585 106.398 140.068C106.593 140.378 106.869 140.697 107.005 141.038C107.365 141.938 107.783 142.947 108.323 143.727C108.902 144.564 109.414 145.545 110.149 146.28C110.778 146.908 111.519 147.436 111.993 148.205C112.357 148.797 113.021 149.547 113.641 149.891C115.122 150.714 116.432 151.874 117.836 152.84" stroke="white" stroke-width="2" stroke-linecap="round" shape-rendering="crispEdges"/>
</g>
<g filter="url(#filter26_d_293_81)">
<path d="M117.935 156.352C117.516 155.505 116.94 154.772 116.276 154.108C116.03 153.862 115.893 153.473 115.593 153.306C115.263 153.123 114.984 152.704 114.715 152.449C114.396 152.148 114.048 151.903 113.793 151.549C113.626 151.317 113.291 151.187 113.061 151.029C112.841 150.877 112.744 150.595 112.568 150.4C112.23 150.024 111.92 149.603 111.636 149.208C111.305 148.749 111 148.209 110.638 147.787C110.359 147.461 110.29 147.057 109.934 146.79" stroke="white" stroke-width="2" stroke-linecap="round"/>
</g>
<g filter="url(#filter27_d_293_81)">
<path d="M497.656 209.378C497.277 206.016 495.715 203.412 492.969 201.565C490.223 199.695 486.766 198.76 482.599 198.76C479.616 198.76 477.036 199.233 474.858 200.18C472.68 201.104 470.987 202.382 469.78 204.016C468.596 205.625 468.004 207.46 468.004 209.52C468.004 211.248 468.407 212.74 469.212 213.994C470.04 215.249 471.117 216.303 472.443 217.155C473.793 217.983 475.237 218.682 476.776 219.25C478.314 219.795 479.794 220.244 481.214 220.599L488.317 222.446C490.637 223.014 493.016 223.784 495.455 224.754C497.893 225.725 500.154 227.003 502.237 228.589C504.321 230.176 506.001 232.141 507.28 234.484C508.582 236.828 509.233 239.634 509.233 242.901C509.233 247.02 508.168 250.678 506.037 253.874C503.93 257.07 500.864 259.591 496.839 261.438C492.839 263.284 487.997 264.207 482.315 264.207C476.87 264.207 472.159 263.343 468.182 261.615C464.205 259.887 461.091 257.437 458.842 254.264C456.593 251.068 455.35 247.28 455.114 242.901H466.122C466.335 245.528 467.188 247.718 468.679 249.47C470.194 251.198 472.124 252.489 474.467 253.341C476.835 254.17 479.427 254.584 482.244 254.584C485.346 254.584 488.104 254.098 490.518 253.128C492.957 252.134 494.875 250.76 496.271 249.009C497.668 247.233 498.366 245.161 498.366 242.794C498.366 240.64 497.751 238.876 496.52 237.503C495.313 236.13 493.667 234.993 491.584 234.094C489.524 233.194 487.192 232.401 484.588 231.714L475.994 229.371C470.17 227.785 465.554 225.453 462.145 222.375C458.759 219.297 457.067 215.225 457.067 210.159C457.067 205.969 458.203 202.311 460.476 199.186C462.749 196.061 465.826 193.634 469.709 191.906C473.591 190.154 477.971 189.278 482.848 189.278C487.772 189.278 492.116 190.143 495.881 191.871C499.669 193.599 502.652 195.978 504.83 199.009C507.008 202.015 508.144 205.472 508.239 209.378H497.656ZM522.346 190.273H535.662L558.816 246.807H559.668L582.821 190.273H596.138V263H585.698V210.372H585.023L563.574 262.893H554.909L533.461 210.337H532.786V263H522.346V190.273ZM618.448 190.273L638.69 249.506H639.506L659.748 190.273H671.609L645.437 263H632.759L606.587 190.273H618.448ZM682.111 263V190.273H727.708V199.719H693.084V221.878H725.328V231.288H693.084V253.554H728.134V263H682.111ZM802.77 213.923H791.69C791.264 211.556 790.471 209.473 789.311 207.673C788.151 205.874 786.731 204.347 785.05 203.092C783.369 201.838 781.487 200.891 779.403 200.251C777.344 199.612 775.154 199.293 772.834 199.293C768.643 199.293 764.891 200.346 761.577 202.453C758.286 204.56 755.682 207.65 753.764 211.722C751.87 215.794 750.923 220.765 750.923 226.636C750.923 232.555 751.87 237.55 753.764 241.622C755.682 245.694 758.298 248.772 761.612 250.855C764.927 252.938 768.655 253.98 772.798 253.98C775.095 253.98 777.273 253.672 779.332 253.057C781.416 252.418 783.298 251.482 784.979 250.251C786.66 249.02 788.08 247.517 789.24 245.741C790.424 243.942 791.241 241.883 791.69 239.562L802.77 239.598C802.178 243.173 801.03 246.464 799.325 249.47C797.644 252.453 795.478 255.034 792.827 257.212C790.199 259.366 787.192 261.035 783.807 262.219C780.421 263.402 776.728 263.994 772.727 263.994C766.43 263.994 760.819 262.503 755.895 259.52C750.971 256.513 747.088 252.216 744.247 246.629C741.43 241.042 740.021 234.378 740.021 226.636C740.021 218.871 741.442 212.207 744.283 206.643C747.124 201.056 751.006 196.771 755.93 193.788C760.855 190.782 766.454 189.278 772.727 189.278C776.586 189.278 780.185 189.835 783.523 190.947C786.884 192.036 789.903 193.646 792.578 195.777C795.253 197.884 797.467 200.464 799.219 203.518C800.971 206.549 802.154 210.017 802.77 213.923Z" fill="white"/>
</g>
<g filter="url(#filter28_d_293_81)">
<path d="M497.876 318.646H490.121C489.822 316.989 489.267 315.531 488.455 314.271C487.643 313.012 486.649 311.943 485.472 311.065C484.296 310.186 482.978 309.523 481.52 309.076C480.078 308.629 478.545 308.405 476.921 308.405C473.988 308.405 471.361 309.142 469.041 310.617C466.738 312.092 464.915 314.255 463.572 317.105C462.247 319.955 461.584 323.436 461.584 327.545C461.584 331.688 462.247 335.185 463.572 338.036C464.915 340.886 466.746 343.04 469.066 344.499C471.386 345.957 473.996 346.686 476.896 346.686C478.504 346.686 480.028 346.471 481.47 346.04C482.929 345.592 484.246 344.938 485.423 344.076C486.599 343.214 487.594 342.162 488.406 340.919C489.234 339.66 489.806 338.218 490.121 336.594L497.876 336.619C497.462 339.121 496.658 341.424 495.465 343.529C494.289 345.617 492.772 347.424 490.916 348.948C489.077 350.456 486.972 351.625 484.602 352.453C482.232 353.282 479.647 353.696 476.847 353.696C472.438 353.696 468.511 352.652 465.064 350.564C461.617 348.459 458.899 345.451 456.911 341.54C454.938 337.629 453.952 332.964 453.952 327.545C453.952 322.11 454.947 317.445 456.935 313.55C458.924 309.639 461.642 306.64 465.089 304.552C468.536 302.447 472.455 301.395 476.847 301.395C479.548 301.395 482.067 301.784 484.403 302.563C486.757 303.326 488.87 304.452 490.742 305.944C492.615 307.419 494.164 309.225 495.391 311.363C496.617 313.484 497.446 315.912 497.876 318.646ZM507.068 353V302.091H538.985V308.703H514.749V324.214H537.32V330.802H514.749V346.388H539.284V353H507.068ZM590.336 302.091V353H583.276L557.399 315.663H556.926V353H549.245V302.091H556.355L582.257 339.477H582.729V302.091H590.336ZM599.03 308.703V302.091H638.43V308.703H622.545V353H614.889V308.703H599.03ZM647.136 353V302.091H679.054V308.703H654.817V324.214H677.388V330.802H654.817V346.388H679.352V353H647.136ZM689.314 353V302.091H707.46C711.404 302.091 714.677 302.77 717.279 304.129C719.897 305.488 721.853 307.369 723.145 309.772C724.438 312.158 725.084 314.918 725.084 318.05C725.084 321.165 724.43 323.908 723.121 326.278C721.828 328.631 719.872 330.462 717.254 331.771C714.652 333.08 711.379 333.735 707.435 333.735H693.689V327.123H706.739C709.225 327.123 711.247 326.767 712.805 326.054C714.379 325.341 715.531 324.306 716.26 322.947C716.989 321.588 717.354 319.955 717.354 318.05C717.354 316.127 716.981 314.462 716.235 313.053C715.506 311.645 714.354 310.567 712.78 309.822C711.222 309.059 709.175 308.678 706.64 308.678H696.995V353H689.314ZM714.445 330.031L727.023 353H718.273L705.944 330.031H714.445ZM797.179 327.545C797.179 332.981 796.184 337.654 794.196 341.565C792.207 345.46 789.481 348.459 786.017 350.564C782.57 352.652 778.651 353.696 774.26 353.696C769.851 353.696 765.916 352.652 762.452 350.564C759.005 348.459 756.287 345.451 754.299 341.54C752.31 337.629 751.316 332.964 751.316 327.545C751.316 322.11 752.31 317.445 754.299 313.55C756.287 309.639 759.005 306.64 762.452 304.552C765.916 302.447 769.851 301.395 774.26 301.395C778.651 301.395 782.57 302.447 786.017 304.552C789.481 306.64 792.207 309.639 794.196 313.55C796.184 317.445 797.179 322.11 797.179 327.545ZM789.572 327.545C789.572 323.402 788.901 319.914 787.559 317.08C786.233 314.23 784.41 312.076 782.09 310.617C779.786 309.142 777.176 308.405 774.26 308.405C771.326 308.405 768.708 309.142 766.404 310.617C764.101 312.076 762.278 314.23 760.936 317.08C759.61 319.914 758.947 323.402 758.947 327.545C758.947 331.688 759.61 335.185 760.936 338.036C762.278 340.869 764.101 343.024 766.404 344.499C768.708 345.957 771.326 346.686 774.26 346.686C777.176 346.686 779.786 345.957 782.09 344.499C784.41 343.024 786.233 340.869 787.559 338.036C788.901 335.185 789.572 331.688 789.572 327.545ZM806.755 353V302.091H838.325V308.703H814.436V324.214H836.063V330.802H814.436V353H806.755ZM866.296 353V302.091H873.977V346.388H897.045V353H866.296ZM905.808 353V302.091H937.725V308.703H913.489V324.214H936.06V330.802H913.489V346.388H938.024V353H905.808ZM982.439 318.174C981.958 316.666 981.312 315.315 980.5 314.122C979.704 312.912 978.751 311.885 977.641 311.04C976.531 310.178 975.263 309.523 973.838 309.076C972.429 308.629 970.88 308.405 969.189 308.405C966.323 308.405 963.737 309.142 961.434 310.617C959.13 312.092 957.307 314.255 955.965 317.105C954.639 319.939 953.976 323.411 953.976 327.521C953.976 331.647 954.648 335.135 955.99 337.986C957.332 340.836 959.172 342.999 961.508 344.474C963.845 345.949 966.505 346.686 969.488 346.686C972.255 346.686 974.666 346.123 976.721 344.996C978.793 343.869 980.392 342.278 981.519 340.223C982.662 338.152 983.234 335.715 983.234 332.915L985.223 333.288H970.656V326.949H990.667V332.741C990.667 337.016 989.755 340.728 987.932 343.877C986.126 347.009 983.624 349.429 980.425 351.136C977.243 352.843 973.598 353.696 969.488 353.696C964.881 353.696 960.837 352.635 957.357 350.514C953.894 348.393 951.192 345.385 949.253 341.491C947.314 337.58 946.345 332.94 946.345 327.57C946.345 323.51 946.908 319.864 948.035 316.633C949.162 313.401 950.745 310.659 952.783 308.405C954.838 306.134 957.249 304.403 960.017 303.21C962.801 302 965.842 301.395 969.14 301.395C971.891 301.395 974.451 301.801 976.821 302.613C979.207 303.425 981.328 304.577 983.184 306.068C985.057 307.56 986.607 309.333 987.833 311.388C989.059 313.426 989.888 315.688 990.319 318.174H982.439ZM1003.15 353H994.992L1013.31 302.091H1022.19L1040.51 353H1032.35L1017.96 311.338H1017.56L1003.15 353ZM1004.51 333.064H1030.96V339.527H1004.51V333.064ZM1047.86 353V302.091H1055.54V346.388H1078.61V353H1047.86ZM1105.9 353V302.091H1137.81V308.703H1113.58V324.214H1136.15V330.802H1113.58V346.388H1138.11V353H1105.9ZM1164.55 353H1148.07V302.091H1165.08C1170.06 302.091 1174.35 303.11 1177.93 305.148C1181.51 307.17 1184.25 310.079 1186.16 313.874C1188.08 317.652 1189.04 322.184 1189.04 327.471C1189.04 332.774 1188.07 337.331 1186.13 341.143C1184.21 344.954 1181.42 347.888 1177.78 349.942C1174.13 351.981 1169.72 353 1164.55 353ZM1155.75 346.288H1164.13C1168.01 346.288 1171.23 345.559 1173.8 344.101C1176.37 342.626 1178.29 340.496 1179.57 337.712C1180.84 334.912 1181.48 331.498 1181.48 327.471C1181.48 323.477 1180.84 320.088 1179.57 317.304C1178.31 314.52 1176.43 312.407 1173.93 310.965C1171.42 309.523 1168.32 308.803 1164.6 308.803H1155.75V346.288ZM1231.33 302.091H1239.03V335.575C1239.03 339.138 1238.2 342.295 1236.52 345.045C1234.85 347.78 1232.5 349.934 1229.46 351.509C1226.43 353.066 1222.88 353.845 1218.8 353.845C1214.74 353.845 1211.19 353.066 1208.16 351.509C1205.13 349.934 1202.78 347.78 1201.1 345.045C1199.43 342.295 1198.59 339.138 1198.59 335.575V302.091H1206.27V334.953C1206.27 337.257 1206.78 339.303 1207.79 341.093C1208.82 342.883 1210.27 344.291 1212.14 345.319C1214.01 346.33 1216.23 346.835 1218.8 346.835C1221.39 346.835 1223.61 346.33 1225.49 345.319C1227.38 344.291 1228.82 342.883 1229.81 341.093C1230.82 339.303 1231.33 337.257 1231.33 334.953V302.091ZM1292.49 318.646H1284.73C1284.43 316.989 1283.88 315.531 1283.06 314.271C1282.25 313.012 1281.26 311.943 1280.08 311.065C1278.91 310.186 1277.59 309.523 1276.13 309.076C1274.69 308.629 1273.15 308.405 1271.53 308.405C1268.6 308.405 1265.97 309.142 1263.65 310.617C1261.35 312.092 1259.52 314.255 1258.18 317.105C1256.86 319.955 1256.19 323.436 1256.19 327.545C1256.19 331.688 1256.86 335.185 1258.18 338.036C1259.52 340.886 1261.36 343.04 1263.68 344.499C1266 345.957 1268.61 346.686 1271.51 346.686C1273.11 346.686 1274.64 346.471 1276.08 346.04C1277.54 345.592 1278.86 344.938 1280.03 344.076C1281.21 343.214 1282.2 342.162 1283.01 340.919C1283.84 339.66 1284.42 338.218 1284.73 336.594L1292.49 336.619C1292.07 339.121 1291.27 341.424 1290.07 343.529C1288.9 345.617 1287.38 347.424 1285.53 348.948C1283.69 350.456 1281.58 351.625 1279.21 352.453C1276.84 353.282 1274.26 353.696 1271.46 353.696C1267.05 353.696 1263.12 352.652 1259.67 350.564C1256.23 348.459 1253.51 345.451 1251.52 341.54C1249.55 337.629 1248.56 332.964 1248.56 327.545C1248.56 322.11 1249.56 317.445 1251.54 313.55C1253.53 309.639 1256.25 306.64 1259.7 304.552C1263.15 302.447 1267.06 301.395 1271.46 301.395C1274.16 301.395 1276.68 301.784 1279.01 302.563C1281.37 303.326 1283.48 304.452 1285.35 305.944C1287.22 307.419 1288.77 309.225 1290 311.363C1291.23 313.484 1292.05 315.912 1292.49 318.646ZM1305.64 353H1297.48L1315.8 302.091H1324.68L1343 353H1334.84L1320.45 311.338H1320.05L1305.64 353ZM1307 333.064H1333.45V339.527H1307V333.064ZM1341.82 308.703V302.091H1381.22V308.703H1365.34V353H1357.68V308.703H1341.82ZM1397.61 302.091V353H1389.93V302.091H1397.61ZM1453.02 327.545C1453.02 332.981 1452.02 337.654 1450.04 341.565C1448.05 345.46 1445.32 348.459 1441.86 350.564C1438.41 352.652 1434.49 353.696 1430.1 353.696C1425.69 353.696 1421.76 352.652 1418.29 350.564C1414.84 348.459 1412.13 345.451 1410.14 341.54C1408.15 337.629 1407.16 332.964 1407.16 327.545C1407.16 322.11 1408.15 317.445 1410.14 313.55C1412.13 309.639 1414.84 306.64 1418.29 304.552C1421.76 302.447 1425.69 301.395 1430.1 301.395C1434.49 301.395 1438.41 302.447 1441.86 304.552C1445.32 306.64 1448.05 309.639 1450.04 313.55C1452.02 317.445 1453.02 322.11 1453.02 327.545ZM1445.41 327.545C1445.41 323.402 1444.74 319.914 1443.4 317.08C1442.07 314.23 1440.25 312.076 1437.93 310.617C1435.63 309.142 1433.02 308.405 1430.1 308.405C1427.17 308.405 1424.55 309.142 1422.24 310.617C1419.94 312.076 1418.12 314.23 1416.78 317.08C1415.45 319.914 1414.79 323.402 1414.79 327.545C1414.79 331.688 1415.45 335.185 1416.78 338.036C1418.12 340.869 1419.94 343.024 1422.24 344.499C1424.55 345.957 1427.17 346.686 1430.1 346.686C1433.02 346.686 1435.63 345.957 1437.93 344.499C1440.25 343.024 1442.07 340.869 1443.4 338.036C1444.74 335.185 1445.41 331.688 1445.41 327.545ZM1503.69 302.091V353H1496.63L1470.75 315.663H1470.28V353H1462.59V302.091H1469.7L1495.61 339.477H1496.08V302.091H1503.69Z" fill="white"/>
</g>
<defs>
<filter id="filter0_d_293_81" x="190.863" y="117.441" width="218.684" height="182.332" filterUnits="userSpaceOnUse" color-interpolation-filters="sRGB">
<feFlood flood-opacity="0" result="BackgroundImageFix"/>
<feColorMatrix in="SourceAlpha" type="matrix" values="0 0 0 0 0 0 0 0 0 0 0 0 0 0 0 0 0 0 127 0" result="hardAlpha"/>
<feOffset/>
<feGaussianBlur stdDeviation="8.5"/>
<feComposite in2="hardAlpha" operator="out"/>
<feColorMatrix type="matrix" values="0 0 0 0 0 0 0 0 0 0 0 0 0 0 0 0 0 0 0.09 0"/>
<feBlend mode="normal" in2="BackgroundImageFix" result="effect1_dropShadow_293_81"/>
<feBlend mode="normal" in="SourceGraphic" in2="effect1_dropShadow_293_81" result="shape"/>
</filter>
<filter id="filter1_d_293_81" x="91.8086" y="308.835" width="187.996" height="126.185" filterUnits="userSpaceOnUse" color-interpolation-filters="sRGB">
<feFlood flood-opacity="0" result="BackgroundImageFix"/>
<feColorMatrix in="SourceAlpha" type="matrix" values="0 0 0 0 0 0 0 0 0 0 0 0 0 0 0 0 0 0 127 0" result="hardAlpha"/>
<feOffset/>
<feGaussianBlur stdDeviation="8.5"/>
<feComposite in2="hardAlpha" operator="out"/>
<feColorMatrix type="matrix" values="0 0 0 0 0 0 0 0 0 0 0 0 0 0 0 0 0 0 0.09 0"/>
<feBlend mode="normal" in2="BackgroundImageFix" result="effect1_dropShadow_293_81"/>
<feBlend mode="normal" in="SourceGraphic" in2="effect1_dropShadow_293_81" result="shape"/>
</filter>
<filter id="filter2_d_293_81" x="91.8086" y="308.835" width="187.996" height="126.185" filterUnits="userSpaceOnUse" color-interpolation-filters="sRGB">
<feFlood flood-opacity="0" result="BackgroundImageFix"/>
<feColorMatrix in="SourceAlpha" type="matrix" values="0 0 0 0 0 0 0 0 0 0 0 0 0 0 0 0 0 0 127 0" result="hardAlpha"/>
<feOffset/>
<feGaussianBlur stdDeviation="8.5"/>
<feComposite in2="hardAlpha" operator="out"/>
<feColorMatrix type="matrix" values="0 0 0 0 0 0 0 0 0 0 0 0 0 0 0 0 0 0 0.09 0"/>
<feBlend mode="normal" in2="BackgroundImageFix" result="effect1_dropShadow_293_81"/>
<feBlend mode="normal" in="SourceGraphic" in2="effect1_dropShadow_293_81" result="shape"/>
</filter>
<filter id="filter3_d_293_81" x="68.3281" y="333.5" width="187.5" height="104.02" filterUnits="userSpaceOnUse" color-interpolation-filters="sRGB">
<feFlood flood-opacity="0" result="BackgroundImageFix"/>
<feColorMatrix in="SourceAlpha" type="matrix" values="0 0 0 0 0 0 0 0 0 0 0 0 0 0 0 0 0 0 127 0" result="hardAlpha"/>
<feOffset/>
<feGaussianBlur stdDeviation="8.5"/>
<feComposite in2="hardAlpha" operator="out"/>
<feColorMatrix type="matrix" values="0 0 0 0 0 0 0 0 0 0 0 0 0 0 0 0 0 0 0.09 0"/>
<feBlend mode="normal" in2="BackgroundImageFix" result="effect1_dropShadow_293_81"/>
<feBlend mode="normal" in="SourceGraphic" in2="effect1_dropShadow_293_81" result="shape"/>
</filter>
<filter id="filter4_d_293_81" x="220.336" y="276.021" width="103.992" height="67.9791" filterUnits="userSpaceOnUse" color-interpolation-filters="sRGB">
<feFlood flood-opacity="0" result="BackgroundImageFix"/>
<feColorMatrix in="SourceAlpha" type="matrix" values="0 0 0 0 0 0 0 0 0 0 0 0 0 0 0 0 0 0 127 0" result="hardAlpha"/>
<feOffset/>
<feGaussianBlur stdDeviation="8.5"/>
<feComposite in2="hardAlpha" operator="out"/>
<feColorMatrix type="matrix" values="0 0 0 0 0 0 0 0 0 0 0 0 0 0 0 0 0 0 0.09 0"/>
<feBlend mode="normal" in2="BackgroundImageFix" result="effect1_dropShadow_293_81"/>
<feBlend mode="normal" in="SourceGraphic" in2="effect1_dropShadow_293_81" result="shape"/>
</filter>
<filter id="filter5_d_293_81" x="143.746" y="154.499" width="132.652" height="198.55" filterUnits="userSpaceOnUse" color-interpolation-filters="sRGB">
<feFlood flood-opacity="0" result="BackgroundImageFix"/>
<feColorMatrix in="SourceAlpha" type="matrix" values="0 0 0 0 0 0 0 0 0 0 0 0 0 0 0 0 0 0 127 0" result="hardAlpha"/>
<feOffset/>
<feGaussianBlur stdDeviation="8.5"/>
<feComposite in2="hardAlpha" operator="out"/>
<feColorMatrix type="matrix" values="0 0 0 0 0 0 0 0 0 0 0 0 0 0 0 0 0 0 0.09 0"/>
<feBlend mode="normal" in2="BackgroundImageFix" result="effect1_dropShadow_293_81"/>
<feBlend mode="normal" in="SourceGraphic" in2="effect1_dropShadow_293_81" result="shape"/>
</filter>
<filter id="filter6_d_293_81" x="235.328" y="359.5" width="163" height="75.0887" filterUnits="userSpaceOnUse" color-interpolation-filters="sRGB">
<feFlood flood-opacity="0" result="BackgroundImageFix"/>
<feColorMatrix in="SourceAlpha" type="matrix" values="0 0 0 0 0 0 0 0 0 0 0 0 0 0 0 0 0 0 127 0" result="hardAlpha"/>
<feOffset/>
<feGaussianBlur stdDeviation="8.5"/>
<feComposite in2="hardAlpha" operator="out"/>
<feColorMatrix type="matrix" values="0 0 0 0 0 0 0 0 0 0 0 0 0 0 0 0 0 0 0.09 0"/>
<feBlend mode="normal" in2="BackgroundImageFix" result="effect1_dropShadow_293_81"/>
<feBlend mode="normal" in="SourceGraphic" in2="effect1_dropShadow_293_81" result="shape"/>
</filter>
<filter id="filter7_d_293_81" x="226.199" y="334.5" width="160.129" height="63.9682" filterUnits="userSpaceOnUse" color-interpolation-filters="sRGB">
<feFlood flood-opacity="0" result="BackgroundImageFix"/>
<feColorMatrix in="SourceAlpha" type="matrix" values="0 0 0 0 0 0 0 0 0 0 0 0 0 0 0 0 0 0 127 0" result="hardAlpha"/>
<feOffset/>
<feGaussianBlur stdDeviation="8.5"/>
<feComposite in2="hardAlpha" operator="out"/>
<feColorMatrix type="matrix" values="0 0 0 0 0 0 0 0 0 0 0 0 0 0 0 0 0 0 0.09 0"/>
<feBlend mode="normal" in2="BackgroundImageFix" result="effect1_dropShadow_293_81"/>
<feBlend mode="normal" in="SourceGraphic" in2="effect1_dropShadow_293_81" result="shape"/>
</filter>
<filter id="filter8_d_293_81" x="212.207" y="309.973" width="160.121" height="68.1713" filterUnits="userSpaceOnUse" color-interpolation-filters="sRGB">
<feFlood flood-opacity="0" result="BackgroundImageFix"/>
<feColorMatrix in="SourceAlpha" type="matrix" values="0 0 0 0 0 0 0 0 0 0 0 0 0 0 0 0 0 0 127 0" result="hardAlpha"/>
<feOffset/>
<feGaussianBlur stdDeviation="8.5"/>
<feComposite in2="hardAlpha" operator="out"/>
<feColorMatrix type="matrix" values="0 0 0 0 0 0 0 0 0 0 0 0 0 0 0 0 0 0 0.09 0"/>
<feBlend mode="normal" in2="BackgroundImageFix" result="effect1_dropShadow_293_81"/>
<feBlend mode="normal" in="SourceGraphic" in2="effect1_dropShadow_293_81" result="shape"/>
</filter>
<filter id="filter9_d_293_81" x="272.934" y="238.479" width="138.043" height="79.3501" filterUnits="userSpaceOnUse" color-interpolation-filters="sRGB">
<feFlood flood-opacity="0" result="BackgroundImageFix"/>
<feColorMatrix in="SourceAlpha" type="matrix" values="0 0 0 0 0 0 0 0 0 0 0 0 0 0 0 0 0 0 127 0" result="hardAlpha"/>
<feOffset/>
<feGaussianBlur stdDeviation="8.5"/>
<feComposite in2="hardAlpha" operator="out"/>
<feColorMatrix type="matrix" values="0 0 0 0 0 0 0 0 0 0 0 0 0 0 0 0 0 0 0.09 0"/>
<feBlend mode="normal" in2="BackgroundImageFix" result="effect1_dropShadow_293_81"/>
<feBlend mode="normal" in="SourceGraphic" in2="effect1_dropShadow_293_81" result="shape"/>
</filter>
<filter id="filter10_d_293_81" x="54.4336" y="233.979" width="138.043" height="79.3501" filterUnits="userSpaceOnUse" color-interpolation-filters="sRGB">
<feFlood flood-opacity="0" result="BackgroundImageFix"/>
<feColorMatrix in="SourceAlpha" type="matrix" values="0 0 0 0 0 0 0 0 0 0 0 0 0 0 0 0 0 0 127 0" result="hardAlpha"/>
<feOffset/>
<feGaussianBlur stdDeviation="8.5"/>
<feComposite in2="hardAlpha" operator="out"/>
<feColorMatrix type="matrix" values="0 0 0 0 0 0 0 0 0 0 0 0 0 0 0 0 0 0 0.09 0"/>
<feBlend mode="normal" in2="BackgroundImageFix" result="effect1_dropShadow_293_81"/>
<feBlend mode="normal" in="SourceGraphic" in2="effect1_dropShadow_293_81" result="shape"/>
</filter>
<filter id="filter11_d_293_81" x="369.422" y="230.992" width="42.4688" height="47.3577" filterUnits="userSpaceOnUse" color-interpolation-filters="sRGB">
<feFlood flood-opacity="0" result="BackgroundImageFix"/>
<feColorMatrix in="SourceAlpha" type="matrix" values="0 0 0 0 0 0 0 0 0 0 0 0 0 0 0 0 0 0 127 0" result="hardAlpha"/>
<feOffset/>
<feGaussianBlur stdDeviation="8.5"/>
<feComposite in2="hardAlpha" operator="out"/>
<feColorMatrix type="matrix" values="0 0 0 0 0 0 0 0 0 0 0 0 0 0 0 0 0 0 0.09 0"/>
<feBlend mode="normal" in2="BackgroundImageFix" result="effect1_dropShadow_293_81"/>
<feBlend mode="normal" in="SourceGraphic" in2="effect1_dropShadow_293_81" result="shape"/>
</filter>
<filter id="filter12_d_293_81" x="271.52" y="229.479" width="45.7578" height="49.2479" filterUnits="userSpaceOnUse" color-interpolation-filters="sRGB">
<feFlood flood-opacity="0" result="BackgroundImageFix"/>
<feColorMatrix in="SourceAlpha" type="matrix" values="0 0 0 0 0 0 0 0 0 0 0 0 0 0 0 0 0 0 127 0" result="hardAlpha"/>
<feOffset/>
<feGaussianBlur stdDeviation="8.5"/>
<feComposite in2="hardAlpha" operator="out"/>
<feColorMatrix type="matrix" values="0 0 0 0 0 0 0 0 0 0 0 0 0 0 0 0 0 0 0.09 0"/>
<feBlend mode="normal" in2="BackgroundImageFix" result="effect1_dropShadow_293_81"/>
<feBlend mode="normal" in="SourceGraphic" in2="effect1_dropShadow_293_81" result="shape"/>
</filter>
<filter id="filter13_d_293_81" x="324.086" y="112.207" width="61.25" height="63.3732" filterUnits="userSpaceOnUse" color-interpolation-filters="sRGB">
<feFlood flood-opacity="0" result="BackgroundImageFix"/>
<feColorMatrix in="SourceAlpha" type="matrix" values="0 0 0 0 0 0 0 0 0 0 0 0 0 0 0 0 0 0 127 0" result="hardAlpha"/>
<feOffset/>
<feGaussianBlur stdDeviation="8.5"/>
<feComposite in2="hardAlpha" operator="out"/>
<feColorMatrix type="matrix" values="0 0 0 0 0 0 0 0 0 0 0 0 0 0 0 0 0 0 0.09 0"/>
<feBlend mode="normal" in2="BackgroundImageFix" result="effect1_dropShadow_293_81"/>
<feBlend mode="normal" in="SourceGraphic" in2="effect1_dropShadow_293_81" result="shape"/>
</filter>
<filter id="filter14_d_293_81" x="344.543" y="119.237" width="38.668" height="43.3482" filterUnits="userSpaceOnUse" color-interpolation-filters="sRGB">
<feFlood flood-opacity="0" result="BackgroundImageFix"/>
<feColorMatrix in="SourceAlpha" type="matrix" values="0 0 0 0 0 0 0 0 0 0 0 0 0 0 0 0 0 0 127 0" result="hardAlpha"/>
<feOffset/>
<feGaussianBlur stdDeviation="8.5"/>
<feComposite in2="hardAlpha" operator="out"/>
<feColorMatrix type="matrix" values="0 0 0 0 0 0 0 0 0 0 0 0 0 0 0 0 0 0 0.09 0"/>
<feBlend mode="normal" in2="BackgroundImageFix" result="effect1_dropShadow_293_81"/>
<feBlend mode="normal" in="SourceGraphic" in2="effect1_dropShadow_293_81" result="shape"/>
</filter>
<filter id="filter15_d_293_81" x="330.707" y="136.8" width="36" height="36.1694" filterUnits="userSpaceOnUse" color-interpolation-filters="sRGB">
<feFlood flood-opacity="0" result="BackgroundImageFix"/>
<feColorMatrix in="SourceAlpha" type="matrix" values="0 0 0 0 0 0 0 0 0 0 0 0 0 0 0 0 0 0 127 0" result="hardAlpha"/>
<feOffset/>
<feGaussianBlur stdDeviation="8.5"/>
<feComposite in2="hardAlpha" operator="out"/>
<feColorMatrix type="matrix" values="0 0 0 0 0 0 0 0 0 0 0 0 0 0 0 0 0 0 0.09 0"/>
<feBlend mode="normal" in2="BackgroundImageFix" result="effect1_dropShadow_293_81"/>
<feBlend mode="normal" in="SourceGraphic" in2="effect1_dropShadow_293_81" result="shape"/>
</filter>
<filter id="filter16_d_293_81" x="330.426" y="136.97" width="40.2344" height="52.0389" filterUnits="userSpaceOnUse" color-interpolation-filters="sRGB">
<feFlood flood-opacity="0" result="BackgroundImageFix"/>
<feColorMatrix in="SourceAlpha" type="matrix" values="0 0 0 0 0 0 0 0 0 0 0 0 0 0 0 0 0 0 127 0" result="hardAlpha"/>
<feOffset/>
<feGaussianBlur stdDeviation="8.5"/>
<feComposite in2="hardAlpha" operator="out"/>
<feColorMatrix type="matrix" values="0 0 0 0 0 0 0 0 0 0 0 0 0 0 0 0 0 0 0.09 0"/>
<feBlend mode="normal" in2="BackgroundImageFix" result="effect1_dropShadow_293_81"/>
<feBlend mode="normal" in="SourceGraphic" in2="effect1_dropShadow_293_81" result="shape"/>
</filter>
<filter id="filter17_d_293_81" x="181.328" y="38" width="103" height="103" filterUnits="userSpaceOnUse" color-interpolation-filters="sRGB">
<feFlood flood-opacity="0" result="BackgroundImageFix"/>
<feColorMatrix in="SourceAlpha" type="matrix" values="0 0 0 0 0 0 0 0 0 0 0 0 0 0 0 0 0 0 127 0" result="hardAlpha"/>
<feOffset/>
<feGaussianBlur stdDeviation="8.5"/>
<feComposite in2="hardAlpha" operator="out"/>
<feColorMatrix type="matrix" values="0 0 0 0 0 0 0 0 0 0 0 0 0 0 0 0 0 0 0.09 0"/>
<feBlend mode="normal" in2="BackgroundImageFix" result="effect1_dropShadow_293_81"/>
<feBlend mode="normal" in="SourceGraphic" in2="effect1_dropShadow_293_81" result="shape"/>
</filter>
<filter id="filter18_d_293_81" x="58.1758" y="114.24" width="186.152" height="156.76" filterUnits="userSpaceOnUse" color-interpolation-filters="sRGB">
<feFlood flood-opacity="0" result="BackgroundImageFix"/>
<feColorMatrix in="SourceAlpha" type="matrix" values="0 0 0 0 0 0 0 0 0 0 0 0 0 0 0 0 0 0 127 0" result="hardAlpha"/>
<feOffset/>
<feGaussianBlur stdDeviation="8.5"/>
<feComposite in2="hardAlpha" operator="out"/>
<feColorMatrix type="matrix" values="0 0 0 0 0 0 0 0 0 0 0 0 0 0 0 0 0 0 0.09 0"/>
<feBlend mode="normal" in2="BackgroundImageFix" result="effect1_dropShadow_293_81"/>
<feBlend mode="normal" in="SourceGraphic" in2="effect1_dropShadow_293_81" result="shape"/>
</filter>
<filter id="filter19_d_293_81" x="145.754" y="226.834" width="49.0898" height="47.3617" filterUnits="userSpaceOnUse" color-interpolation-filters="sRGB">
<feFlood flood-opacity="0" result="BackgroundImageFix"/>
<feColorMatrix in="SourceAlpha" type="matrix" values="0 0 0 0 0 0 0 0 0 0 0 0 0 0 0 0 0 0 127 0" result="hardAlpha"/>
<feOffset/>
<feGaussianBlur stdDeviation="8.5"/>
<feComposite in2="hardAlpha" operator="out"/>
<feColorMatrix type="matrix" values="0 0 0 0 0 0 0 0 0 0 0 0 0 0 0 0 0 0 0.09 0"/>
<feBlend mode="normal" in2="BackgroundImageFix" result="effect1_dropShadow_293_81"/>
<feBlend mode="normal" in="SourceGraphic" in2="effect1_dropShadow_293_81" result="shape"/>
</filter>
<filter id="filter20_d_293_81" x="155.039" y="228.804" width="37.1641" height="36" filterUnits="userSpaceOnUse" color-interpolation-filters="sRGB">
<feFlood flood-opacity="0" result="BackgroundImageFix"/>
<feColorMatrix in="SourceAlpha" type="matrix" values="0 0 0 0 0 0 0 0 0 0 0 0 0 0 0 0 0 0 127 0" result="hardAlpha"/>
<feOffset/>
<feGaussianBlur stdDeviation="8.5"/>
<feComposite in2="hardAlpha" operator="out"/>
<feColorMatrix type="matrix" values="0 0 0 0 0 0 0 0 0 0 0 0 0 0 0 0 0 0 0.09 0"/>
<feBlend mode="normal" in2="BackgroundImageFix" result="effect1_dropShadow_293_81"/>
<feBlend mode="normal" in="SourceGraphic" in2="effect1_dropShadow_293_81" result="shape"/>
</filter>
<filter id="filter21_d_293_81" x="156.332" y="230.093" width="37.0664" height="38.9738" filterUnits="userSpaceOnUse" color-interpolation-filters="sRGB">
<feFlood flood-opacity="0" result="BackgroundImageFix"/>
<feColorMatrix in="SourceAlpha" type="matrix" values="0 0 0 0 0 0 0 0 0 0 0 0 0 0 0 0 0 0 127 0" result="hardAlpha"/>
<feOffset/>
<feGaussianBlur stdDeviation="8.5"/>
<feComposite in2="hardAlpha" operator="out"/>
<feColorMatrix type="matrix" values="0 0 0 0 0 0 0 0 0 0 0 0 0 0 0 0 0 0 0.09 0"/>
<feBlend mode="normal" in2="BackgroundImageFix" result="effect1_dropShadow_293_81"/>
<feBlend mode="normal" in="SourceGraphic" in2="effect1_dropShadow_293_81" result="shape"/>
</filter>
<filter id="filter22_d_293_81" x="53" y="226.854" width="48.0195" height="48.3125" filterUnits="userSpaceOnUse" color-interpolation-filters="sRGB">
<feFlood flood-opacity="0" result="BackgroundImageFix"/>
<feColorMatrix in="SourceAlpha" type="matrix" values="0 0 0 0 0 0 0 0 0 0 0 0 0 0 0 0 0 0 127 0" result="hardAlpha"/>
<feOffset/>
<feGaussianBlur stdDeviation="8.5"/>
<feComposite in2="hardAlpha" operator="out"/>
<feColorMatrix type="matrix" values="0 0 0 0 0 0 0 0 0 0 0 0 0 0 0 0 0 0 0.09 0"/>
<feBlend mode="normal" in2="BackgroundImageFix" result="effect1_dropShadow_293_81"/>
<feBlend mode="normal" in="SourceGraphic" in2="effect1_dropShadow_293_81" result="shape"/>
</filter>
<filter id="filter23_d_293_81" x="81.7969" y="108.201" width="57.6523" height="63.5169" filterUnits="userSpaceOnUse" color-interpolation-filters="sRGB">
<feFlood flood-opacity="0" result="BackgroundImageFix"/>
<feColorMatrix in="SourceAlpha" type="matrix" values="0 0 0 0 0 0 0 0 0 0 0 0 0 0 0 0 0 0 127 0" result="hardAlpha"/>
<feOffset/>
<feGaussianBlur stdDeviation="8.5"/>
<feComposite in2="hardAlpha" operator="out"/>
<feColorMatrix type="matrix" values="0 0 0 0 0 0 0 0 0 0 0 0 0 0 0 0 0 0 0.09 0"/>
<feBlend mode="normal" in2="BackgroundImageFix" result="effect1_dropShadow_293_81"/>
<feBlend mode="normal" in="SourceGraphic" in2="effect1_dropShadow_293_81" result="shape"/>
</filter>
<filter id="filter24_d_293_81" x="83.8477" y="112.425" width="54.6328" height="57.4386" filterUnits="userSpaceOnUse" color-interpolation-filters="sRGB">
<feFlood flood-opacity="0" result="BackgroundImageFix"/>
<feColorMatrix in="SourceAlpha" type="matrix" values="0 0 0 0 0 0 0 0 0 0 0 0 0 0 0 0 0 0 127 0" result="hardAlpha"/>
<feOffset/>
<feGaussianBlur stdDeviation="8.5"/>
<feComposite in2="hardAlpha" operator="out"/>
<feColorMatrix type="matrix" values="0 0 0 0 0 0 0 0 0 0 0 0 0 0 0 0 0 0 0.09 0"/>
<feBlend mode="normal" in2="BackgroundImageFix" result="effect1_dropShadow_293_81"/>
<feBlend mode="normal" in="SourceGraphic" in2="effect1_dropShadow_293_81" result="shape"/>
</filter>
<filter id="filter25_d_293_81" x="87.2422" y="119.418" width="50.6445" height="51.4213" filterUnits="userSpaceOnUse" color-interpolation-filters="sRGB">
<feFlood flood-opacity="0" result="BackgroundImageFix"/>
<feColorMatrix in="SourceAlpha" type="matrix" values="0 0 0 0 0 0 0 0 0 0 0 0 0 0 0 0 0 0 127 0" result="hardAlpha"/>
<feOffset/>
<feGaussianBlur stdDeviation="8.5"/>
<feComposite in2="hardAlpha" operator="out"/>
<feColorMatrix type="matrix" values="0 0 0 0 0 0 0 0 0 0 0 0 0 0 0 0 0 0 0.09 0"/>
<feBlend mode="normal" in2="BackgroundImageFix" result="effect1_dropShadow_293_81"/>
<feBlend mode="normal" in="SourceGraphic" in2="effect1_dropShadow_293_81" result="shape"/>
</filter>
<filter id="filter26_d_293_81" x="91.9336" y="128.79" width="44" height="45.5627" filterUnits="userSpaceOnUse" color-interpolation-filters="sRGB">
<feFlood flood-opacity="0" result="BackgroundImageFix"/>
<feColorMatrix in="SourceAlpha" type="matrix" values="0 0 0 0 0 0 0 0 0 0 0 0 0 0 0 0 0 0 127 0" result="hardAlpha"/>
<feOffset/>
<feGaussianBlur stdDeviation="8.5"/>
<feComposite in2="hardAlpha" operator="out"/>
<feColorMatrix type="matrix" values="0 0 0 0 0 0 0 0 0 0 0 0 0 0 0 0 0 0 0.09 0"/>
<feBlend mode="normal" in2="BackgroundImageFix" result="effect1_dropShadow_293_81"/>
<feBlend mode="normal" in="SourceGraphic" in2="effect1_dropShadow_293_81" result="shape"/>
</filter>
<filter id="filter27_d_293_81" x="443.113" y="180.278" width="371.656" height="98.929" filterUnits="userSpaceOnUse" color-interpolation-filters="sRGB">
<feFlood flood-opacity="0" result="BackgroundImageFix"/>
<feColorMatrix in="SourceAlpha" type="matrix" values="0 0 0 0 0 0 0 0 0 0 0 0 0 0 0 0 0 0 127 0" result="hardAlpha"/>
<feOffset dy="3"/>
<feGaussianBlur stdDeviation="6"/>
<feComposite in2="hardAlpha" operator="out"/>
<feColorMatrix type="matrix" values="0 0 0 0 0 0 0 0 0 0 0 0 0 0 0 0 0 0 0.17 0"/>
<feBlend mode="normal" in2="BackgroundImageFix" result="effect1_dropShadow_293_81"/>
<feBlend mode="normal" in="SourceGraphic" in2="effect1_dropShadow_293_81" result="shape"/>
</filter>
<filter id="filter28_d_293_81" x="441.953" y="292.395" width="1073.73" height="76.4503" filterUnits="userSpaceOnUse" color-interpolation-filters="sRGB">
<feFlood flood-opacity="0" result="BackgroundImageFix"/>
<feColorMatrix in="SourceAlpha" type="matrix" values="0 0 0 0 0 0 0 0 0 0 0 0 0 0 0 0 0 0 127 0" result="hardAlpha"/>
<feOffset dy="3"/>
<feGaussianBlur stdDeviation="6"/>
<feComposite in2="hardAlpha" operator="out"/>
<feColorMatrix type="matrix" values="0 0 0 0 0 0 0 0 0 0 0 0 0 0 0 0 0 0 0.17 0"/>
<feBlend mode="normal" in2="BackgroundImageFix" result="effect1_dropShadow_293_81"/>
<feBlend mode="normal" in="SourceGraphic" in2="effect1_dropShadow_293_81" result="shape"/>
</filter>
</defs>
</svg>
