<svg width="55" height="43" viewBox="0 0 55 43" fill="none" xmlns="http://www.w3.org/2000/svg">
<g clip-path="url(#clip0_294_114)">
<path d="M54.815 13.8034C54.1077 9.76249 52.1434 5.91232 49.2924 2.96023C47.9959 1.62445 46.7106 0.810739 45.4534 0.518788C45.4366 0.513178 45.3749 0.496347 45.3581 0.496347C42.9952 -0.00868605 41.3788 1.34943 39.6333 2.96584C39.4032 3.14537 35.0648 7.53995 28.0211 10.4809C28.0155 10.4865 28.0099 10.4865 28.0043 10.4921C28.0043 10.4921 27.9988 10.4921 27.9932 10.4921L19.2265 14.7407C19.2209 14.7462 19.2153 14.7519 19.2097 14.7519C19.2097 14.7575 19.2041 14.7575 19.1985 14.7575C12.531 18.4561 6.36281 19.152 6.11035 19.2138C4.51077 19.4664 2.70361 19.747 1.4632 20.9817C0.217175 22.222 -0.237366 24.1807 0.116189 26.7962C0.666213 30.8596 2.47337 34.7883 5.20666 37.8471C6.56478 39.368 8.33839 40.7094 10.3645 40.5748C12.1716 40.4625 13.6029 39.2109 14.86 38.1109C15.208 37.8527 19.5912 33.6659 27.0221 30.2759C27.0278 30.2759 27.0278 30.2703 27.0278 30.2703C27.084 30.2423 28.9361 29.3499 28.9361 29.3499C28.7171 33.1103 28.8911 36.6573 29.4861 40.715C29.5198 40.9452 29.6937 41.1303 29.9183 41.1808C30.1428 41.2314 30.3785 41.1415 30.5076 40.9508L32.4832 38.0491L35.817 41.8318C35.9573 41.9946 36.1818 42.0619 36.4007 42.0001C36.6084 41.9328 36.7655 41.7532 36.7936 41.5344C37.2818 37.8807 37.3381 34.4065 37.2987 31.0334C40.5483 33.6937 41.4126 34.5636 46.0821 37.3306C46.2729 37.4428 46.5087 37.4316 46.6882 37.3082C46.8679 37.1792 46.9576 36.9601 46.9184 36.7469L46.0148 31.7855L49.5113 32.0325C49.7414 32.0493 49.9603 31.9202 50.0613 31.7126C50.1568 31.5049 50.1175 31.2523 49.9603 31.0839C47.1485 28.1093 44.4713 25.7745 41.3958 23.6193C43.8315 22.7438 46.3236 22.0591 48.8492 21.582L49.04 21.5484C51.4421 21.0993 53.558 20.5887 54.5289 18.3213L54.5345 18.3157C54.5514 18.282 54.5626 18.2427 54.5739 18.2091C55.0395 17.0473 55.1292 15.577 54.815 13.8034ZM14.1247 37.2689C12.9405 38.296 11.7171 39.3623 10.2915 39.4578C8.93329 39.5477 7.51335 38.7506 6.04292 37.1005C3.46111 34.2045 1.74943 30.4891 1.22735 26.6445C0.924286 24.394 1.27234 22.7551 2.25446 21.7785C3.23659 20.8019 4.78567 20.5605 6.27855 20.3249C6.59844 20.2463 12.4578 19.5952 19.0468 16.1043C20.0346 21.8122 22.2964 26.3526 25.793 29.6191C18.8337 32.9305 14.961 36.6347 14.1247 37.2689ZM26.0399 25.3089C25.9277 25.4156 25.7538 25.4212 25.6415 25.3089C23.5143 23.1762 22.2347 20.2296 22.1338 17.2158C22.1281 17.0642 22.2461 16.9352 22.4032 16.9296C22.5604 16.9128 22.6894 17.0418 22.695 17.199C22.7905 20.067 24.0083 22.8789 26.04 24.9104C26.1466 25.0225 26.1466 25.2022 26.0399 25.3089ZM27.112 26.4033C27.0109 26.5212 26.8314 26.538 26.7135 26.437L26.2982 26.0834C26.1803 25.9823 26.1636 25.8028 26.2645 25.685C26.3655 25.5671 26.5452 25.5558 26.663 25.6569L27.0782 26.0105C27.1962 26.1115 27.2074 26.2854 27.112 26.4033ZM48.5347 6.55211C49.1969 7.18068 49.7413 7.98888 50.1118 8.88124C50.398 9.57713 50.8302 10.3798 50.9425 11.2217C51.0434 12.0017 50.8134 12.9839 50.0613 13.4216C49.023 14.0222 47.996 13.2926 47.2719 12.3385C46.6209 11.4855 46.1044 10.5202 45.7342 9.47054C45.5489 8.94857 45.347 8.25267 45.4423 7.53423C45.5545 6.66993 46.1158 5.97954 46.8118 5.85611C47.3617 5.75523 47.9453 5.99087 48.5347 6.55211ZM43.4947 5.18838C43.6069 4.33529 44.0279 3.63368 44.6396 3.25208C45.3916 2.79193 46.385 2.91535 46.8958 3.5327C46.9968 3.65062 46.98 3.83015 46.8622 3.93125C46.7443 4.02662 46.5647 4.00979 46.4637 3.89197C46.1381 3.49915 45.4366 3.4261 44.9372 3.73478C44.4713 4.0154 44.1401 4.58786 44.0503 5.26131C43.8987 6.40624 44.3871 7.55689 44.8193 8.56707C44.881 8.71293 44.8137 8.87574 44.6733 8.93745C44.5273 8.99917 44.3646 8.93184 44.3029 8.79148C43.8651 7.76436 43.3207 6.48479 43.4947 5.18838ZM35.8281 40.1538L32.848 36.7639C32.7302 36.6347 32.5674 36.5618 32.3933 36.5786C32.2193 36.5899 32.0622 36.6796 31.9611 36.82L30.4008 39.11C29.9463 35.5013 29.8564 32.2516 30.0922 28.7887C31.3381 28.1825 35.1321 26.3472 36.0806 25.8813C36.0918 26.611 36.103 27.3407 36.1199 28.0814C36.2041 31.9596 36.2883 35.9557 35.8281 40.1538ZM48.8321 20.4429L48.6413 20.4822C44.1907 21.3184 39.841 22.7832 35.6934 24.8206C32.0958 21.6159 29.8003 17.0866 28.863 11.3339C35.8617 8.32 40.1721 3.9648 40.3965 3.79088C40.7557 3.45405 41.1206 3.11732 41.4966 2.80876C41.1037 3.99285 41.2552 5.22204 41.4685 6.28843C42.3497 10.6493 44.5049 14.6116 47.6871 17.7489C48.4896 18.5347 49.483 19.3934 50.7683 19.7919C50.903 19.8311 51.0321 19.8592 51.1668 19.8817C50.4373 20.1397 49.629 20.2969 48.8321 20.4429Z" fill="#303F82"/>
<path d="M53.7662 13.4902C53.2785 13.7646 52.6568 13.0757 52.3154 12.6307C51.6875 11.8016 51.1815 10.8689 50.8219 9.85086C50.6694 9.4059 50.4988 8.83273 50.5658 8.30856C50.6147 7.92453 50.8463 7.56488 51.0657 7.52211C51.3217 7.47945 51.6875 7.78426 51.8764 7.96707C52.4739 8.53402 52.9677 9.26563 53.3029 10.0824C53.6077 10.8201 54.0284 11.6064 54.1259 12.3137C54.1869 12.8197 54.0345 13.3318 53.7662 13.4902Z" fill="#303F82"/>
<path d="M15.1772 22.2782C13.5531 22.7763 11.7728 22.7472 10.0521 22.9787C7.81202 23.2805 6.19752 24.0601 5.25393 25.2959C4.29662 26.5505 4.00073 28.3463 4.44311 30.2228C4.82948 31.865 5.67721 33.3266 6.49694 34.7398C6.5819 34.886 6.76893 34.9345 6.91366 34.8506C7.05897 34.7661 7.10889 34.5794 7.0244 34.4339C6.2267 33.059 5.40217 31.6373 5.03608 30.0829C4.636 28.3851 4.89205 26.7751 5.7385 25.6657C6.58026 24.5628 8.05905 23.8621 10.1331 23.5829C11.8669 23.35 13.6515 23.384 15.3558 22.861C15.5166 22.8116 15.6071 22.641 15.5576 22.4803C15.5089 22.319 15.3386 22.2295 15.1772 22.2782Z" fill="#303F82"/>
<path d="M7.66208 35.395C7.52157 35.3014 7.33232 35.3389 7.23939 35.4786C7.14528 35.6186 7.18278 35.8078 7.32271 35.9016L7.68997 36.148C7.83071 36.2415 8.01986 36.204 8.11267 36.0643C8.20677 35.9244 8.16927 35.7352 8.02935 35.6414L7.66208 35.395Z" fill="#303F82"/>
<path d="M34.5665 31.4965C34.398 31.4965 34.2617 31.6328 34.2617 31.8013L34.2623 37.8038C34.2623 37.9724 34.3986 38.1086 34.5671 38.1086C34.7356 38.1086 34.8719 37.9724 34.8719 37.8038L34.8713 31.8013C34.8713 31.6329 34.7351 31.4965 34.5665 31.4965Z" fill="#303F82"/>
<path d="M12.7967 24.466C11.5435 24.5431 10.2475 24.6229 9.03719 25.1089C7.64711 25.6658 6.64997 26.7157 6.36954 27.9167C6.03016 29.3702 6.72731 30.8117 7.47028 32.1637C7.55102 32.3093 7.73371 32.3661 7.88465 32.2839C8.03172 32.203 8.08586 32.0176 8.00489 31.8702C7.28993 30.57 6.67258 29.2999 6.96368 28.0554C7.19829 27.0478 8.05844 26.1577 9.26395 25.6743C10.3832 25.2252 11.6291 25.1484 12.8335 25.0742C13.002 25.0638 13.1294 24.9194 13.1192 24.7513C13.1086 24.5839 12.9693 24.4542 12.7967 24.466Z" fill="#303F82"/>
</g>
<defs>
<clipPath id="clip0_294_114">
<rect width="55" height="43" fill="white"/>
</clipPath>
</defs>
</svg>
