<svg width="50" height="50" viewBox="0 0 50 50" fill="none" xmlns="http://www.w3.org/2000/svg">
<g clip-path="url(#clip0_294_121)">
<path d="M31.1629 32.2918C32.0796 28.0678 32.5587 24.323 32.5587 22.7553C32.5587 18.3699 28.9909 14.8021 24.6107 14.8021C20.2305 14.8021 16.6628 18.3699 16.6628 22.7553C16.6628 24.323 17.1419 28.0678 18.0586 32.297C16.6991 32.8855 15.4648 33.7136 14.3919 34.7814C12.1419 37.0262 10.9023 40.021 10.9023 43.2033C10.9023 45.349 12.6523 47.099 14.7981 47.099H15.8345L16.1888 48.5209C16.4075 49.3907 17.1888 50 18.0845 50H31.1366C32.0325 50 32.8137 49.3906 33.0325 48.5209L33.3866 47.099H34.4231C36.569 47.099 38.319 45.349 38.319 43.2033C38.3191 38.4116 35.5222 34.1824 31.1629 32.2918ZM20.4076 23.0261C21.5535 22.7709 22.892 22.1771 23.4857 20.4636C24.8295 21.6146 26.5222 22.4167 28.8191 23.0053V26.2657C28.8191 28.5886 26.9285 30.474 24.6107 30.474C22.293 30.474 20.4076 28.5886 20.4076 26.2657V23.0261ZM26.1368 31.2866V32.5314C26.1368 33.3751 25.4546 34.0575 24.6107 34.0575C24.2045 34.0575 23.8191 33.9012 23.5326 33.6095C23.2409 33.323 23.0846 32.9376 23.0846 32.5314V31.2866C23.5691 31.4324 24.0795 31.5158 24.6107 31.5158C25.142 31.5158 25.6524 31.4324 26.1368 31.2866ZM24.6107 45.5887C23.543 45.5887 22.6784 44.724 22.6784 43.6616C22.6784 42.5938 23.543 41.7241 24.6107 41.7241C25.6785 41.7241 26.5482 42.5939 26.5482 43.6616C26.5483 44.724 25.6785 45.5887 24.6107 45.5887ZM34.4233 46.0574H33.6472L35.2254 39.7396C35.267 39.5833 35.2826 39.4219 35.2826 39.2657C35.2826 38.2203 34.4428 37.3126 33.3295 37.3126H15.8972C14.5903 37.3126 13.6979 38.5362 13.9961 39.7396L15.5742 46.0574H14.7982C13.2252 46.0574 11.944 44.7761 11.944 43.2033C11.944 40.297 13.0742 37.5679 15.1315 35.521C16.2044 34.4428 17.4544 33.6251 18.8502 33.0835C19.8762 32.6773 20.9492 32.4481 22.043 32.37V32.5315C22.043 33.219 22.3086 33.8648 22.793 34.3492C23.2774 34.8336 23.9232 35.0992 24.6107 35.0992C26.0274 35.0992 27.1785 33.9481 27.1785 32.5315V32.37C28.2722 32.4481 29.3452 32.6773 30.3764 33.0835C34.5692 34.7242 37.2775 38.6981 37.2775 43.2034C37.2774 44.7762 35.9961 46.0574 34.4233 46.0574Z" fill="#303F82"/>
<path d="M48.3907 20.9844L43.0522 15.6458V3.91667C43.0522 2.67187 42.0418 1.66147 40.797 1.66147H37.3386C36.0886 1.66147 35.0783 2.67187 35.0783 3.91667V7.67188L29.3855 1.97912C28.1094 0.703138 26.4116 0 24.6094 0C22.8072 0 21.1094 0.703138 19.8333 1.97912L0.82809 20.9844C-0.27603 22.0938 -0.27603 23.8958 0.82809 25C1.9375 26.1094 3.73437 26.1041 4.84378 25L23.849 5.99472C24.0418 5.80197 24.3177 5.69266 24.6094 5.69266C24.9011 5.69266 25.1824 5.80207 25.3698 5.99472L44.3802 25C44.9323 25.552 45.6562 25.8281 46.3854 25.8281C47.1094 25.8281 47.8386 25.552 48.3906 25C49.5001 23.8958 49.5001 22.0938 48.3907 20.9844ZM47.6564 24.2656C46.9533 24.9636 45.8179 24.9636 45.1147 24.2656L26.1094 5.25521C25.724 4.86981 25.1771 4.65099 24.6094 4.65099C24.0417 4.65099 23.4948 4.86972 23.1146 5.25521L4.10417 24.2656C3.40623 24.9636 2.26564 24.9636 1.5625 24.2656C0.86456 23.5625 0.86456 22.4219 1.5625 21.724L20.5729 2.71873C21.6511 1.6354 23.0833 1.04167 24.6094 1.04167C26.1355 1.04167 27.5677 1.6354 28.6459 2.71873L47.6563 21.724C48.3543 22.4219 48.3543 23.5625 47.6564 24.2656Z" fill="#303F82"/>
</g>
<defs>
<clipPath id="clip0_294_121">
<rect width="50" height="50" fill="white"/>
</clipPath>
</defs>
</svg>
